<svg xmlns="http://www.w3.org/2000/svg"><defs><filter id="Filter_0"> <feFlood flood-color="rgb(36, 142, 250)" flood-opacity="1" result="floodOut"></feFlood> <feComposite operator="atop" in="floodOut" in2="SourceGraphic" result="compOut"></feComposite> <feBlend mode="normal" in="compOut" in2="SourceGraphic"></feBlend></filter></defs><g filter="url(#Filter_0)"><path fill-rule="evenodd" fill="rgb(36, 142, 250)" d="M2.626,3.282 L2.626,0.657 C2.626,0.295 2.920,0.001 3.283,0.001 C3.645,0.001 3.939,0.295 3.939,0.657 L3.939,3.282 C3.939,3.645 3.645,3.938 3.283,3.938 C2.920,3.938 2.626,3.645 2.626,3.282 ZM13.783,3.938 C14.145,3.938 14.439,3.645 14.439,3.282 L14.439,0.657 C14.439,0.295 14.145,0.001 13.783,0.001 C13.420,0.001 13.126,0.295 13.126,0.657 L13.126,3.282 C13.126,3.645 13.420,3.938 13.783,3.938 ZM21.002,15.751 C21.002,18.650 18.651,21.001 15.751,21.001 C12.852,21.001 10.501,18.650 10.501,15.751 C10.501,12.851 12.852,10.501 15.751,10.501 C18.651,10.501 21.002,12.851 21.002,15.751 ZM19.689,15.751 C19.689,13.580 17.923,11.813 15.751,11.813 C13.580,11.813 11.814,13.580 11.814,15.751 C11.814,17.922 13.580,19.689 15.751,19.689 C17.923,19.689 19.689,17.922 19.689,15.751 ZM5.251,7.876 L2.626,7.876 L2.626,10.501 L5.251,10.501 L5.251,7.876 ZM2.626,14.438 L5.251,14.438 L5.251,11.813 L2.626,11.813 L2.626,14.438 ZM6.564,10.501 L9.189,10.501 L9.189,7.876 L6.564,7.876 L6.564,10.501 ZM6.564,14.438 L9.189,14.438 L9.189,11.813 L6.564,11.813 L6.564,14.438 ZM1.314,15.620 L1.314,6.563 L15.751,6.563 L15.751,9.188 L17.064,9.188 L17.064,4.069 C17.064,3.272 16.428,2.626 15.642,2.626 L15.095,2.626 L15.095,3.282 C15.095,4.005 14.507,4.595 13.783,4.595 C13.059,4.595 12.470,4.005 12.470,3.282 L12.470,2.626 L4.595,2.626 L4.595,3.282 C4.595,4.005 4.007,4.595 3.283,4.595 C2.559,4.595 1.970,4.005 1.970,3.282 L1.970,2.626 L1.424,2.626 C0.638,2.626 0.001,3.272 0.001,4.069 L0.001,15.620 C0.001,16.415 0.638,17.063 1.424,17.063 L9.189,17.063 L9.189,15.751 L1.424,15.751 C1.364,15.751 1.314,15.689 1.314,15.620 ZM13.126,10.501 L13.126,7.876 L10.501,7.876 L10.501,10.501 L13.126,10.501 ZM17.720,15.751 L15.751,15.751 L15.751,13.782 C15.751,13.420 15.458,13.126 15.095,13.126 C14.732,13.126 14.439,13.420 14.439,13.782 L14.439,16.407 C14.439,16.770 14.732,17.063 15.095,17.063 L17.720,17.063 C18.083,17.063 18.376,16.770 18.376,16.407 C18.376,16.045 18.083,15.751 17.720,15.751 Z"></path></g></svg>